<svg id="Layer_1" data-name="Layer 1" xmlns="http://www.w3.org/2000/svg" xmlns:xlink="http://www.w3.org/1999/xlink" width="200mm" height="200mm" viewBox="0 0 566.93 566.93"><defs><linearGradient id="linear-gradient" x1="144.74" y1="158.56" x2="422.19" y2="408.37" gradientUnits="userSpaceOnUse"><stop offset="0" stop-color="#0496fb"/><stop offset="0.14" stop-color="#3f72ff"/><stop offset="0.28" stop-color="#784aff"/><stop offset="0.42" stop-color="#b038ee"/><stop offset="0.57" stop-color="#cd40be"/><stop offset="0.72" stop-color="#ff415a"/><stop offset="0.86" stop-color="#f7941e"/><stop offset="0.98" stop-color="#ffe800"/></linearGradient></defs><title>Social Icons</title><g id="_Group_" data-name="&lt;Group&gt;"><circle id="_Path_" data-name="&lt;Path&gt;" cx="283.46" cy="283.46" r="186.67" fill="url(#linear-gradient)"/><path id="_Compound_Path_" data-name="&lt;Compound Path&gt;" d="M233.45,175.69h100a58.85,58.85,0,0,1,58.57,58.58v99.51a58.84,58.84,0,0,1-58.57,58.57h-100a58.85,58.85,0,0,1-58.58-58.57V234.27a58.85,58.85,0,0,1,58.58-58.58Zm108.33,37.84h0A12.62,12.62,0,0,1,354.22,226h0a12.62,12.62,0,0,1-12.44,12.44h0A12.28,12.28,0,0,1,329.34,226h0a12.28,12.28,0,0,1,12.44-12.44Zm-58.57,11.41h.51c32.14,0,59.09,26.95,59.09,59.08h0c0,32.66-26.95,59.09-59.09,59.09h-.51c-32.14,0-58.58-26.43-58.58-59.09h0c0-32.13,26.44-59.08,58.58-59.08Zm0,20.21h.51A39.15,39.15,0,0,1,322.6,284h0c0,21.77-17.62,39.4-38.88,39.4h-.51c-21.26,0-38.88-17.63-38.88-39.4h0a39.15,39.15,0,0,1,38.88-38.87ZM234,194.35h99a40.49,40.49,0,0,1,40.43,40.43v98.49A40.49,40.49,0,0,1,333,373.7H234a40.49,40.49,0,0,1-40.43-40.43V234.78A40.49,40.49,0,0,1,234,194.35Z" fill="#fff" fill-rule="evenodd"/></g></svg>