<svg id="Layer_1" data-name="Layer 1" xmlns="http://www.w3.org/2000/svg" width="200mm" height="200mm" viewBox="0 0 566.93 566.93"><title>Social Icons</title><g id="_Group_" data-name="&lt;Group&gt;"><circle id="_Path_" data-name="&lt;Path&gt;" cx="283.46" cy="283.46" r="186.67"/><g id="_Group_2" data-name="&lt;Group&gt;"><path id="_Compound_Path_" data-name="&lt;Compound Path&gt;" d="M265.81,260.74h-1.35v28a31.38,31.38,0,0,0-9-1.35A30.13,30.13,0,0,0,241,344.24a30.49,30.49,0,0,1,24.82-47.84,29.21,29.21,0,0,1,9,1.35V261.64a55.78,55.78,0,0,0-9-.9ZM217.52,371.32a67.13,67.13,0,0,0,48.29,20.77c36.56,0,66.36-29.34,66.36-65.45v-74a65.68,65.68,0,0,0,49.2,16.7V233.65a20.09,20.09,0,0,1-10.39,0v26.64a66.78,66.78,0,0,1-49.65-16.71v74a65.59,65.59,0,0,1-65.9,65.45,68.41,68.41,0,0,1-37.91-11.74ZM345.26,218.76c-8.58-9.48-13.55-22.12-13.09-34.31h-9.93c2.25,13.55,11.28,27.09,23,34.31Z" fill="#ff2e56" fill-rule="evenodd"/><path id="_Compound_Path_2" data-name="&lt;Compound Path&gt;" d="M255.43,251.71c-36.56,0-66.35,29.34-66.35,65.9a65.22,65.22,0,0,0,28.44,53.71,65.79,65.79,0,0,1,46.94-110.58v-8.13a61.39,61.39,0,0,0-9-.9ZM371,233.65v-9c-9,1.8-18.05-.91-25.72-5.87,7.22,8.12,15.79,13.54,25.72,14.89Zm-48.74-49.2a59.81,59.81,0,0,1-.91-9H285.67V317.61h0a30.24,30.24,0,0,1-30.24,30.24A31,31,0,0,1,241,344.24a31.4,31.4,0,0,0,24.82,12.64,30.34,30.34,0,0,0,30.7-30.24h0V184.45Z" fill="#23f1e7" fill-rule="evenodd"/><path id="_Path_2" data-name="&lt;Path&gt;" d="M217.52,371.32a68.41,68.41,0,0,0,37.91,11.74,65.59,65.59,0,0,0,65.9-65.45v-74A66.78,66.78,0,0,0,371,260.29V233.65c-9.93-1.35-18.5-6.77-25.72-14.89-11.74-7.22-20.77-20.76-23-34.31H296.51V326.64h0a30.34,30.34,0,0,1-30.7,30.24A31.4,31.4,0,0,1,241,344.24a30.13,30.13,0,0,1,14.44-56.87,31.38,31.38,0,0,1,9,1.35v-28a65.79,65.79,0,0,0-46.94,110.58Z" fill="#fff" fill-rule="evenodd"/></g></g></svg>