<svg id="Layer_1" data-name="Layer 1" xmlns="http://www.w3.org/2000/svg" width="200mm" height="200mm" viewBox="0 0 566.93 566.93"><title>Social Icons</title><g id="_Group_" data-name="&lt;Group&gt;"><circle id="_Path_" data-name="&lt;Path&gt;" cx="283.46" cy="283.46" r="186.67" fill="#fe0000"/><g id="_Group_2" data-name="&lt;Group&gt;"><path id="_Path_2" data-name="&lt;Path&gt;" d="M219.59,209.84c20.84-1.67,45.42-2.5,64.17-2.5h0c18.75,0,42.91.83,64.16,2.5,24.58,2.08,37.08,6.25,40.42,30.83,1.66,11.25,2.5,26.67,2.5,42.5h0c0,15.83-.84,31.67-2.5,42.5-3.34,25-15.84,28.75-40.42,30.83-21.25,2.09-45.41,2.5-64.16,2.5h0c-18.75,0-43.33-.41-64.17-2.5-24.58-2.08-37.5-5.83-40.83-30.83a401.49,401.49,0,0,1-2.08-42.5h0a407.58,407.58,0,0,1,2.08-42.5c3.33-24.58,16.25-28.75,40.83-30.83Z" fill="#fff" fill-rule="evenodd"/><polygon id="_Path_3" data-name="&lt;Path&gt;" points="262.09 251.09 317.92 283.17 262.09 315.67 262.09 251.09" fill="#fe0000" fill-rule="evenodd"/></g></g></svg>