<svg id="Layer_1" data-name="Layer 1" xmlns="http://www.w3.org/2000/svg" width="200mm" height="200mm" viewBox="0 0 566.93 566.93"><title>Social Icons</title><path d="M204,321.45c-6.94-2.86-13.07-5.26-19.1-7.89-24-10.48-38-28.85-40-54.8-2.09-26.58,8.75-47.94,32.07-61.13,28.57-16.17,57.92-31,86.93-46.33q31-16.4,61.92-32.76c41.63-22,90.46,3.46,96.14,50.14,3,24.83-10.51,51.11-32.65,63.26-7.33,4-14.76,7.87-22.14,11.82-1.17.62-2.3,1.35-3.95,2.33,6.71,2.81,12.94,5.26,19,8,25.11,11.32,39.18,30.72,40,58.29.74,26.25-11.08,46.41-34.24,58.86-48.72,26.19-97.71,51.89-146.62,77.73-40.2,21.23-89.82-5.27-94.67-50.51a64.78,64.78,0,0,1,34.65-65C188.57,329.65,195.82,325.78,204,321.45Zm45,8.26,86.67-45.91L249,237.91Z" fill="#fe0000"/><path d="M249,329.71v-91.8l86.67,45.89Z" fill="#fff"/></svg>